<?xml version="1.0" encoding="utf-8"?>
<svg viewBox="175 175 150 154.558" width="150" height="154.558" xmlns="http://www.w3.org/2000/svg">
  <rect x="175" y="175" width="150" height="150" style="fill: none;"/>
  <rect style="paint-order: fill; stroke: rgb(255, 255, 255); stroke-width: 5px;" x="200" y="200" width="100" height="100" rx="20" ry="20"/>
  <path d="M 280.137 231.943 C 280.137 239.619 266.644 245.84 250 245.84 C 233.356 245.84 219.863 239.619 219.863 231.943 C 219.863 226.258 227.267 221.371 237.87 219.218 C 235.53 221.985 234.117 225.558 234.117 229.458 C 234.117 238.216 241.242 245.341 250 245.341 C 258.759 245.341 265.884 238.216 265.884 229.458 C 265.884 225.558 264.47 221.985 262.131 219.218 C 272.734 221.371 280.137 226.258 280.137 231.943 Z M 257.647 228.836 C 255.115 228.836 253.062 226.783 253.062 224.251 C 253.062 223.05 253.528 221.959 254.285 221.142 C 253 220.477 251.544 220.099 250 220.099 C 244.84 220.099 240.642 224.297 240.642 229.458 C 240.642 234.617 244.84 238.816 250 238.816 C 255.161 238.816 259.359 234.617 259.359 229.458 C 259.359 229.141 259.343 228.828 259.312 228.52 C 258.795 228.721 258.234 228.836 257.647 228.836 Z" style="fill: rgb(255, 255, 255);"/>
  <text style="fill: rgb(255, 255, 255); font-family: Arial, sans-serif; font-size: 28px; white-space: pre;" x="222.986" y="278.701">ELO</text>
  <text style="fill: rgb(255, 255, 255); font-family: Arial, sans-serif; font-size: 24px; white-space: pre;" x="199.308" y="324.288">Show Elo</text>
</svg>